<?xml version="1.0" encoding="UTF-8" standalone="no"?>
<svg
   width="132.29mm"
   height="132.29mm"
   version="1.1"
   viewBox="0 0 132.29 132.29"
   id="svg10"
   sodipodi:docname="B-icon.svg"
   inkscape:version="1.1.2 (0a00cf5339, 2022-02-04)"
   xmlns:inkscape="http://www.inkscape.org/namespaces/inkscape"
   xmlns:sodipodi="http://sodipodi.sourceforge.net/DTD/sodipodi-0.dtd"
   xmlns="http://www.w3.org/2000/svg"
   xmlns:svg="http://www.w3.org/2000/svg">
  <defs
     id="defs14" />
  <sodipodi:namedview
     id="namedview12"
     pagecolor="#ffffff"
     bordercolor="#666666"
     borderopacity="1.0"
     inkscape:pageshadow="2"
     inkscape:pageopacity="0.0"
     inkscape:pagecheckerboard="0"
     inkscape:document-units="mm"
     showgrid="false"
     inkscape:zoom="1.7460221"
     inkscape:cx="249.71047"
     inkscape:cy="249.99684"
     inkscape:window-width="3440"
     inkscape:window-height="1330"
     inkscape:window-x="0"
     inkscape:window-y="27"
     inkscape:window-maximized="1"
     inkscape:current-layer="svg10" />
  <g
     fill="#1a1a1a"
     id="g8">
    <path
       d="m66.146 98.557c-17.899 0-32.411-14.512-32.411-32.411s14.512-32.411 32.411-32.411 32.411 14.512 32.411 32.411-14.512 32.411-32.411 32.411m0-72.76c-22.283 0-40.349 18.066-40.349 40.349s18.066 40.349 40.349 40.349 40.349-18.066 40.349-40.349-18.066-40.349-40.349-40.349"
       id="path2"
       style="fill:#4352df;fill-opacity:1" />
    <path
       d="m66.146 108.48c-23.381 0-42.333-18.952-42.333-42.333s18.952-42.333 42.333-42.333 42.333 18.952 42.333 42.333-18.952 42.333-42.333 42.333m0-108.48c-36.531 0-66.146 29.615-66.146 66.146 0 36.531 29.615 66.146 66.146 66.146 36.531 0 66.146-29.615 66.146-66.146 0-36.531-29.615-66.146-66.146-66.146"
       id="path4"
       style="fill:#4352df;fill-opacity:1" />
    <path
       d="m74.082 73.625c0-1.9132-1.5653-3.4208-4.4061-3.4208h-7.1895v6.8416h7.1895c2.8408 0 4.4061-1.5655 4.4061-3.4208m-11.596-18.379v5.566h5.566c2.4932 0 3.6526-1.2176 3.6526-2.7832 0-1.5653-1.1594-2.7829-3.6526-2.7829zm21.568 19.133c0 7.0731-4.6964 12.059-15.422 12.059h-17.22v-40.585h16.582c8.7545 0 13.451 4.4643 13.451 11.19 0 2.3191-0.92763 5.6819-3.7685 7.769 4.6961 1.8555 6.3775 5.856 6.3775 9.5668"
       id="path6"
       style="fill:#4352df;fill-opacity:1" />
  </g>
</svg>
