<?xml version="1.0" encoding="UTF-8" standalone="no"?>
<svg
   width="132.29mm"
   height="132.29mm"
   version="1.1"
   viewBox="0 0 132.29 132.29"
   id="svg10"
   sodipodi:docname="J-icon.svg"
   inkscape:version="1.1.2 (0a00cf5339, 2022-02-04)"
   xmlns:inkscape="http://www.inkscape.org/namespaces/inkscape"
   xmlns:sodipodi="http://sodipodi.sourceforge.net/DTD/sodipodi-0.dtd"
   xmlns="http://www.w3.org/2000/svg"
   xmlns:svg="http://www.w3.org/2000/svg">
  <defs
     id="defs14" />
  <sodipodi:namedview
     id="namedview12"
     pagecolor="#ffffff"
     bordercolor="#666666"
     borderopacity="1.0"
     inkscape:pageshadow="2"
     inkscape:pageopacity="0.0"
     inkscape:pagecheckerboard="0"
     inkscape:document-units="mm"
     showgrid="false"
     inkscape:zoom="1.7460221"
     inkscape:cx="249.71047"
     inkscape:cy="249.99684"
     inkscape:window-width="3440"
     inkscape:window-height="1330"
     inkscape:window-x="0"
     inkscape:window-y="27"
     inkscape:window-maximized="1"
     inkscape:current-layer="svg10" />
  <g
     fill="#1a1a1a"
     id="g8"
     style="fill:#b01a1b;fill-opacity:1">
    <path
       d="m66.146 108.48c-23.381 0-42.333-18.952-42.333-42.333s18.952-42.333 42.333-42.333 42.333 18.952 42.333 42.333-18.952 42.333-42.333 42.333m0-108.48c-36.531 0-66.146 29.615-66.146 66.146 0 36.531 29.615 66.146 66.146 66.146 36.531 0 66.146-29.615 66.146-66.146 0-36.531-29.615-66.146-66.146-66.146"
       id="path2"
       style="fill:#b01a1b;fill-opacity:1" />
    <path
       d="m66.146 98.557c-17.899 0-32.411-14.512-32.411-32.411s14.512-32.411 32.411-32.411 32.411 14.512 32.411 32.411-14.512 32.411-32.411 32.411m0-72.76c-22.283 0-40.349 18.066-40.349 40.349s18.066 40.349 40.349 40.349 40.349-18.066 40.349-40.349-18.066-40.349-40.349-40.349"
       id="path4"
       style="fill:#b01a1b;fill-opacity:1" />
    <path
       d="m78.116 45.853v23.499c0 11.352-6.5275 17.085-14.985 17.085-6.5278 0-9.9335-1.9868-14.247-6.187l6.1301-6.2439c2.2707 2.2704 3.9735 2.8951 6.5278 2.8951 3.7462 0 5.733-2.441 5.733-7.2088v-23.84z"
       id="path6"
       style="fill:#b01a1b;fill-opacity:1" />
  </g>
</svg>
