<?xml version="1.0" encoding="UTF-8" standalone="no"?>
<svg
   width="132.29mm"
   height="132.29mm"
   version="1.1"
   viewBox="0 0 132.29 132.29"
   id="svg10"
   sodipodi:docname="L-icon.svg"
   inkscape:version="1.1.2 (0a00cf5339, 2022-02-04)"
   xmlns:inkscape="http://www.inkscape.org/namespaces/inkscape"
   xmlns:sodipodi="http://sodipodi.sourceforge.net/DTD/sodipodi-0.dtd"
   xmlns="http://www.w3.org/2000/svg"
   xmlns:svg="http://www.w3.org/2000/svg">
  <defs
     id="defs14" />
  <sodipodi:namedview
     id="namedview12"
     pagecolor="#ffffff"
     bordercolor="#666666"
     borderopacity="1.0"
     inkscape:pageshadow="2"
     inkscape:pageopacity="0.0"
     inkscape:pagecheckerboard="0"
     inkscape:document-units="mm"
     showgrid="false"
     inkscape:zoom="1.7460221"
     inkscape:cx="249.71047"
     inkscape:cy="249.99684"
     inkscape:window-width="3440"
     inkscape:window-height="1330"
     inkscape:window-x="0"
     inkscape:window-y="27"
     inkscape:window-maximized="1"
     inkscape:current-layer="svg10" />
  <g
     fill="#1a1a1a"
     id="g8"
     style="fill:#278316;fill-opacity:1">
    <path
       transform="matrix(.26458 0 0 -.26458 66.145 98.556)"
       d="m0 0c-67.65 0-122.5 54.85-122.5 122.5s54.85 122.5 122.5 122.5 122.5-54.85 122.5-122.5-54.85-122.5-122.5-122.5m0 275c-84.22 0-152.5-68.28-152.5-152.5s68.28-152.5 152.5-152.5 152.5 68.28 152.5 152.5-68.28 152.5-152.5 152.5"
       id="path2"
       style="fill:#278316;fill-opacity:1" />
    <path
       transform="matrix(.26458 0 0 -.26458 82.379 77.045)"
       d="m0 0v-35.499h-106.72v153.39h42.073v-117.89z"
       id="path4"
       style="fill:#278316;fill-opacity:1" />
    <path
       d="m66.145 108.48c-23.381 0-42.333-18.952-42.333-42.333 0-23.381 18.952-42.333 42.333-42.333s42.333 18.952 42.333 42.333c0 23.381-18.952 42.333-42.333 42.333m0-108.48c-36.531 0-66.146 29.615-66.146 66.146 0 36.531 29.615 66.146 66.146 66.146 36.531 0 66.146-29.615 66.146-66.146 0-36.531-29.615-66.146-66.146-66.146"
       id="path6"
       style="fill:#278316;fill-opacity:1" />
  </g>
</svg>
